# xmcd
#
# Track frame offsets: 
#        150
#        16121
#        32108
#        46650
#        69363
#        86788
#        106461
#        126153
#        159899
#        177224
#        190718
#        202161
#        217728
#        233253
#        258218
#        272451
#
# Disc length: 3850 seconds
#
# Revision: 3
# Processed by: cddbd v1.5.2PL0 Copyright (c) Steve Scherf et al.
# Submitted via: ExactAudioCopy v1.0b3
#
DISCID=c30f0810
DTITLE=Matthew Sweet and Susanna Hoffs - Under the Covers Vol. 2
DYEAR=2009
DGENRE=Alternative
TTITLE0=Sugar Magnolia
TTITLE1=Go All the Way
TTITLE2=Second Hand News
TTITLE3=Bell Bottom Blues
TTITLE4=All the Young Dudes
TTITLE5=You're So Vain
TTITLE6=Here Comes My Girl
TTITLE7=I've Seen All Good People: Your Move\\All Good People
TTITLE8=Hello It's Me
TTITLE9=Willin'
TTITLE10=Back of a Car
TTITLE11=Couldn't I Just Tell You
TTITLE12=Gimme Some Truth
TTITLE13=Maggie May
TTITLE14=Everything I Own
TTITLE15=Beware of Darkness
EXTD=
EXTT0=
EXTT1=
EXTT2=
EXTT3=
EXTT4=
EXTT5=
EXTT6=
EXTT7=
EXTT8=
EXTT9=
EXTT10=
EXTT11=
EXTT12=
EXTT13=
EXTT14=
EXTT15=
PLAYORDER=
